G75*
%MOIN*%
%OFA0B0*%
%FSLAX25Y25*%
%IPPOS*%
%LPD*%
%AMOC8*
5,1,8,0,0,1.08239X$1,22.5*
%
%ADD10C,0.07400*%
%ADD11C,0.06000*%
%ADD12C,0.06800*%
%ADD13OC8,0.06000*%
%ADD14C,0.05950*%
%ADD15C,0.06800*%
%ADD16R,0.10249X0.08674*%
%ADD17R,0.09887X0.02769*%
%ADD18C,0.04737*%
%ADD19C,0.12611*%
D10*
X0148342Y0103933D03*
X0148342Y0118933D03*
X0188342Y0118933D03*
X0188342Y0103933D03*
D11*
X0200742Y0113933D02*
X0205942Y0113933D01*
X0205942Y0123933D02*
X0200742Y0123933D01*
X0200742Y0133933D02*
X0205942Y0133933D01*
X0205942Y0143933D02*
X0200742Y0143933D01*
X0200742Y0153933D02*
X0205942Y0153933D01*
X0205942Y0163933D02*
X0200742Y0163933D01*
X0200742Y0173933D02*
X0205942Y0173933D01*
X0205942Y0183933D02*
X0200742Y0183933D01*
X0200742Y0193933D02*
X0205942Y0193933D01*
X0230742Y0193933D02*
X0235942Y0193933D01*
X0235942Y0183933D02*
X0230742Y0183933D01*
X0230742Y0173933D02*
X0235942Y0173933D01*
X0235942Y0163933D02*
X0230742Y0163933D01*
X0230742Y0153933D02*
X0235942Y0153933D01*
X0235942Y0143933D02*
X0230742Y0143933D01*
X0230742Y0133933D02*
X0235942Y0133933D01*
X0235942Y0123933D02*
X0230742Y0123933D01*
X0230742Y0113933D02*
X0235942Y0113933D01*
D12*
X0236342Y0083933D02*
X0230342Y0083933D01*
X0230342Y0073933D02*
X0236342Y0073933D01*
X0236342Y0063933D02*
X0230342Y0063933D01*
X0230342Y0053933D02*
X0236342Y0053933D01*
X0103342Y0075933D02*
X0103342Y0081933D01*
X0093342Y0081933D02*
X0093342Y0075933D01*
X0083342Y0075933D02*
X0083342Y0081933D01*
X0073342Y0081933D02*
X0073342Y0075933D01*
X0063342Y0075933D02*
X0063342Y0081933D01*
X0053342Y0081933D02*
X0053342Y0075933D01*
X0088342Y0145933D02*
X0088342Y0151933D01*
X0098342Y0151933D02*
X0098342Y0145933D01*
X0123342Y0145933D02*
X0123342Y0151933D01*
X0133342Y0151933D02*
X0133342Y0145933D01*
X0355342Y0153933D02*
X0361342Y0153933D01*
X0361342Y0163933D02*
X0355342Y0163933D01*
D13*
X0358342Y0113933D03*
X0358342Y0073933D03*
X0188342Y0133933D03*
X0188342Y0148933D03*
X0188342Y0163933D03*
X0188342Y0178933D03*
X0188342Y0193933D03*
X0148342Y0193933D03*
X0130842Y0188933D03*
X0123342Y0183933D03*
X0123342Y0193933D03*
X0105842Y0188933D03*
X0098342Y0183933D03*
X0098342Y0193933D03*
X0148342Y0178933D03*
X0148342Y0163933D03*
X0148342Y0148933D03*
X0148342Y0133933D03*
D14*
X0104985Y0131770D02*
X0104985Y0126621D01*
X0094985Y0126621D02*
X0094985Y0131770D01*
X0054985Y0131770D02*
X0054985Y0126621D01*
X0054985Y0101392D02*
X0054985Y0096243D01*
X0094985Y0096243D02*
X0094985Y0101392D01*
X0104985Y0101392D02*
X0104985Y0096243D01*
X0130491Y0084642D02*
X0135641Y0084642D01*
X0150491Y0084642D02*
X0155641Y0084642D01*
X0170491Y0084642D02*
X0175641Y0084642D01*
X0200491Y0084642D02*
X0205641Y0084642D01*
X0205641Y0054642D02*
X0200491Y0054642D01*
X0175641Y0054642D02*
X0170491Y0054642D01*
X0155641Y0054642D02*
X0150491Y0054642D01*
X0135641Y0054642D02*
X0130491Y0054642D01*
D15*
X0258342Y0073933D03*
X0258342Y0083933D03*
X0258342Y0093933D03*
X0258342Y0103933D03*
X0258342Y0113933D03*
X0258342Y0123933D03*
X0258342Y0133933D03*
X0258342Y0143933D03*
X0258342Y0153933D03*
X0258342Y0163933D03*
X0273342Y0193933D03*
X0283342Y0193933D03*
X0293342Y0193933D03*
X0303342Y0193933D03*
X0313342Y0193933D03*
X0323342Y0193933D03*
X0338342Y0163933D03*
X0338342Y0153933D03*
X0338342Y0143933D03*
X0338342Y0133933D03*
X0338342Y0123933D03*
X0338342Y0113933D03*
X0338342Y0103933D03*
X0338342Y0093933D03*
X0338342Y0083933D03*
X0338342Y0073933D03*
D16*
X0067121Y0141610D03*
X0045468Y0141610D03*
X0045468Y0176256D03*
X0067121Y0176256D03*
D17*
X0069342Y0165232D03*
X0069342Y0162083D03*
X0069342Y0158933D03*
X0069342Y0155783D03*
X0069342Y0152634D03*
D18*
X0057279Y0150272D03*
X0057279Y0167594D03*
D19*
X0053342Y0053933D03*
X0053342Y0193933D03*
X0363342Y0193933D03*
X0363342Y0053933D03*
M02*
