%
M48
M72
T01C0.03150
T02C0.03200
T03C0.03937
T04C0.04000
T05C0.04400
T06C0.11811
%
T01
X133066Y54642
X153066Y54642
X173066Y54642
X203066Y54642
X203066Y84642
X173066Y84642
X153066Y84642
X133066Y84642
X104985Y98817
X94985Y98817
X54985Y98817
X54985Y129196
X94985Y129196
X104985Y129196
T02
X148342Y133933
X148342Y148933
X148342Y163933
X148342Y178933
X130842Y188933
X123342Y183933
X123342Y193933
X105842Y188933
X98342Y183933
X98342Y193933
X148342Y193933
X188342Y193933
X203342Y193933
X203342Y183933
X203342Y173933
X188342Y178933
X188342Y163933
X203342Y163933
X203342Y153933
X203342Y143933
X203342Y133933
X203342Y123933
X203342Y113933
X233342Y113933
X233342Y123933
X233342Y133933
X233342Y143933
X233342Y153933
X233342Y163933
X233342Y173933
X233342Y183933
X233342Y193933
X188342Y148933
X188342Y133933
X358342Y113933
X358342Y73933
T03
X57279Y150272
X57279Y167594
T04
X88342Y148933
X98342Y148933
X123342Y148933
X133342Y148933
X233342Y83933
X233342Y73933
X233342Y63933
X233342Y53933
X258342Y73933
X258342Y83933
X258342Y93933
X258342Y103933
X258342Y113933
X258342Y123933
X258342Y133933
X258342Y143933
X258342Y153933
X258342Y163933
X273342Y193933
X283342Y193933
X293342Y193933
X303342Y193933
X313342Y193933
X323342Y193933
X338342Y163933
X338342Y153933
X338342Y143933
X338342Y133933
X338342Y123933
X338342Y113933
X338342Y103933
X338342Y93933
X338342Y83933
X338342Y73933
X358342Y153933
X358342Y163933
X103342Y78933
X93342Y78933
X83342Y78933
X73342Y78933
X63342Y78933
X53342Y78933
T05
X148342Y103933
X148342Y118933
X188342Y118933
X188342Y103933
T06
X53342Y53933
X53342Y193933
X363342Y193933
X363342Y53933
M30
